<svg width="584" height="128" viewBox="0 0 584 128" fill="none" xmlns="http://www.w3.org/2000/svg">
<path fill-rule="evenodd" clip-rule="evenodd" d="M207.2 121.896C230.816 121.896 250.136 102.671 250.136 79.1766C250.136 55.6827 230.816 36.4573 207.2 36.4573H204.638C193.377 14.8517 170.668 0 144.641 0C122.244 0 102.31 10.996 90.0083 27.8238C67.6285 19.5417 44.039 35.1047 40.1519 53.689C34.5481 53.3026 30.0828 52.802 24.4523 54.2511C10.2292 57.9311 0 71.1316 0 86.8176C0 106.113 15.8686 121.896 35.2597 121.896H207.2Z" fill="#076EF9"/>
<path fill-rule="evenodd" clip-rule="evenodd" d="M467.12 61.4268C481.192 61.4268 492.595 72.6863 492.595 86.5806C492.595 100.475 481.192 111.734 467.12 111.734C453.048 111.734 441.645 100.475 441.645 86.5806C441.645 72.6863 453.048 61.4268 467.12 61.4268ZM467.12 73.7402C474.298 73.7402 480.124 79.4929 480.124 86.5806C480.124 93.6683 474.298 99.421 467.12 99.421C459.942 99.421 454.115 93.6683 454.115 86.5806C454.115 79.4929 459.942 73.7402 467.12 73.7402Z" fill="#6E6E6E"/>
<path fill-rule="evenodd" clip-rule="evenodd" d="M267.08 110.961H279.204V74.0563L292.778 73.8719L292.751 61.699L279.24 61.6375C279.773 55.1031 283.634 47.831 294.032 47.7519V35.4824C276.473 35.4824 267.062 48.6478 267.062 64.0879V110.961H267.08Z" fill="#6E6E6E"/>
<path fill-rule="evenodd" clip-rule="evenodd" d="M502.655 110.988H514.752V88.2051C514.752 83.3394 515.998 79.352 519.911 76.0673C522.713 73.7223 525.257 73.4852 529.545 72.7211V61.2156C520.516 60.2144 509.593 66.0901 505.261 74.3283C502.486 79.6155 502.646 83.6292 502.646 90.0846V110.988H502.655Z" fill="#6E6E6E"/>
<path fill-rule="evenodd" clip-rule="evenodd" d="M437.962 110.821V99.2542C436.575 99.2542 432.154 99.4562 427.937 95.785C426.639 94.6608 425.482 93.1151 424.691 90.9106C423.392 87.336 423.908 78.7201 423.908 74.399L437.695 74.3024L437.82 62.6652L423.899 62.5247V47.2866L411.5 52.0293C411.5 61.2249 411.055 81.9346 411.606 88.7237C412.167 95.5743 415.307 100.51 418.793 103.883C423.73 108.661 431.086 111.778 437.962 110.812V110.821Z" fill="#6E6E6E"/>
<path d="M560.001 91.9292L570.293 63.2622H584L557.395 128H544.328L552.867 107.158L534.081 63.2622H548.037L560.001 91.9292Z" fill="#6E6E6E"/>
<path fill-rule="evenodd" clip-rule="evenodd" d="M333.677 110.426H345.872V64.0088L333.757 63.9913L332.992 65.4492L332.379 65.1242C324.934 61.1632 314.687 61.9185 307.74 66.5822C300.624 71.3512 296.719 78.395 296.772 86.9494C296.879 104.989 316.101 116.679 332.574 108.248L333.508 107.773L333.686 110.426H333.677ZM319.054 74.7501C325.761 73.5118 332.21 78.0349 333.482 84.5781C334.762 91.1651 330.271 97.436 323.679 98.7622C317.008 100.106 310.47 95.8288 309.074 89.2593C307.642 82.5141 312.294 76.0061 319.054 74.7501Z" fill="#6E6E6E"/>
<path fill-rule="evenodd" clip-rule="evenodd" d="M400.514 101.467L391.708 93.7208C387.501 97.4447 384.263 100.361 377.885 98.7182C372.531 97.3481 368.466 92.5878 368.403 87.0635C368.341 81.425 372.13 76.7086 377.538 75.1101C383.712 73.2921 387.634 76.2343 391.77 80.0812C393.434 78.553 399.349 73.582 400.505 72.0625C398.753 68.848 392.011 65.0275 388.728 63.9209C383.382 62.1117 377.334 62.2171 372.068 64.2371C351.076 72.2909 351.129 101.511 371.863 109.46C377.174 111.497 383.036 111.664 388.453 109.934C392.189 108.739 398.335 104.884 400.496 101.467H400.514Z" fill="#6E6E6E"/>
<path fill-rule="evenodd" clip-rule="evenodd" d="M175.933 104.629H186.029V85.7901C186.029 81.7676 187.07 78.4653 190.334 75.7514C192.674 73.8104 195.111 73.6963 198.375 73.5382V63.5434C190.841 62.7178 181.724 67.4956 178.113 74.3023C175.791 78.6761 175.933 81.996 175.933 87.3271V104.612V104.629Z" fill="white"/>
<path fill-rule="evenodd" clip-rule="evenodd" d="M226.573 104.48V94.8273C225.408 94.8273 221.726 94.9942 218.203 91.9378C217.127 90.998 216.157 89.707 215.49 87.8714C214.405 84.8852 214.841 77.7009 214.841 74.1L226.351 74.0209L226.458 64.316L214.841 64.193V51.4756L204.496 55.4366C204.496 63.1127 204.122 80.3884 204.585 86.0533C205.048 91.7709 207.672 95.89 210.58 98.7005C214.699 102.688 220.836 105.296 226.573 104.48Z" fill="white"/>
<path fill-rule="evenodd" clip-rule="evenodd" d="M157.121 104.155H167.297V65.4316H157.184L156.543 66.6348L156.027 66.3625C149.818 63.0602 141.262 63.6926 135.462 67.5833C129.52 71.5619 126.265 77.4464 126.309 84.578C126.398 99.6317 142.436 109.389 156.187 102.346L156.97 101.95L157.112 104.164L157.121 104.155ZM144.917 74.39C150.512 73.3536 155.894 77.1302 156.952 82.5931C158.02 88.0911 154.275 93.3168 148.778 94.4235C143.21 95.5477 137.748 91.9731 136.592 86.5014C135.4 80.8804 139.278 75.4439 144.926 74.3988L144.917 74.39Z" fill="white"/>
<path fill-rule="evenodd" clip-rule="evenodd" d="M120.74 104.629H110.324V82.7249C110.324 79.1152 107.336 76.173 103.689 76.173C100.033 76.173 97.0531 79.124 97.0531 82.7249V104.629H86.637V82.7249C86.637 79.1152 83.6483 76.173 80.0014 76.173C76.3455 76.173 73.3657 79.124 73.3657 82.7249V104.629H63.8125V65.4229H73.3657V67.1004C75.5539 66.0289 78.0178 65.4229 80.624 65.4229C85.2672 65.4229 89.4745 67.3463 92.4721 70.429C95.4697 67.3463 99.6771 65.4229 104.32 65.4229C113.358 65.4229 120.749 72.7213 120.749 81.6446V104.629H120.74Z" fill="white"/>
<path fill-rule="evenodd" clip-rule="evenodd" d="M54.4108 64.9751H39.8052C33.0628 64.9751 27.5391 70.5961 27.5391 77.4642C27.5391 84.3411 33.054 89.962 39.8052 89.962H44.4306V93.2907H31.9154L27.5391 93.3171V104.77H42.2958C49.4207 104.77 55.2558 99.0171 55.2558 91.9733C55.2558 84.9383 49.4296 79.1768 42.2958 79.1768H38.6311V75.8482H47.5706L54.393 75.8218V64.9663L54.4108 64.9751Z" fill="white"/>
<path d="M267.788 23L271.411 1.18182H279.592C281.268 1.18182 282.625 1.49432 283.662 2.11932C284.699 2.73722 285.42 3.59304 285.825 4.68679C286.229 5.77344 286.315 7.01278 286.08 8.40483C285.853 9.80398 285.352 11.0469 284.578 12.1335C283.811 13.2202 282.799 14.076 281.542 14.701C280.285 15.3189 278.815 15.6278 277.131 15.6278H271.709L272.252 12.3786H277.142C278.122 12.3786 278.953 12.2081 279.635 11.8672C280.324 11.5263 280.867 11.0575 281.265 10.4609C281.663 9.86435 281.925 9.17898 282.053 8.40483C282.174 7.63068 282.135 6.94886 281.936 6.35938C281.737 5.76989 281.35 5.31179 280.775 4.98508C280.207 4.65128 279.429 4.48438 278.442 4.48438H274.82L271.741 23H267.788ZM294.374 1.18182L290.752 23H286.895L290.517 1.18182H294.374ZM299.384 23.3303C298.347 23.3303 297.445 23.1456 296.678 22.7763C295.911 22.3999 295.346 21.8459 294.984 21.1143C294.629 20.3828 294.54 19.4808 294.718 18.4084C294.874 17.4851 295.172 16.7216 295.612 16.1179C296.06 15.5142 296.607 15.0312 297.253 14.669C297.906 14.2997 298.617 14.0227 299.384 13.8381C300.158 13.6534 300.946 13.5185 301.749 13.4332C302.729 13.3338 303.521 13.2415 304.124 13.1562C304.735 13.071 305.193 12.9432 305.499 12.7727C305.804 12.5952 305.989 12.3253 306.053 11.9631V11.8991C306.181 11.0966 306.053 10.4751 305.669 10.0348C305.286 9.59446 304.646 9.37429 303.752 9.37429C302.814 9.37429 302.026 9.58026 301.387 9.99219C300.747 10.4041 300.282 10.8906 299.991 11.4517L296.497 10.9403C296.937 9.94602 297.541 9.11506 298.308 8.44744C299.075 7.77273 299.959 7.26847 300.96 6.93466C301.969 6.59375 303.045 6.4233 304.188 6.4233C304.97 6.4233 305.733 6.51563 306.479 6.70028C307.232 6.88494 307.896 7.19034 308.471 7.61648C309.053 8.03551 309.48 8.60724 309.749 9.33168C310.026 10.0561 310.073 10.9616 309.888 12.0483L308.066 23H304.359L304.742 20.7521H304.615C304.309 21.2067 303.911 21.6328 303.421 22.0305C302.931 22.4212 302.349 22.7372 301.674 22.9787C300.999 23.2131 300.236 23.3303 299.384 23.3303ZM300.843 20.4964C301.617 20.4964 302.313 20.3437 302.931 20.0384C303.549 19.7259 304.057 19.3139 304.455 18.8026C304.852 18.2912 305.101 17.7337 305.2 17.13L305.52 15.2017C305.378 15.3011 305.158 15.3935 304.86 15.4787C304.561 15.5639 304.227 15.6385 303.858 15.7024C303.496 15.7663 303.137 15.8232 302.782 15.8729C302.427 15.9226 302.122 15.9652 301.866 16.0007C301.276 16.0788 300.737 16.2067 300.247 16.3842C299.764 16.5618 299.362 16.8104 299.043 17.13C298.73 17.4425 298.535 17.8473 298.457 18.3445C298.343 19.0476 298.51 19.5838 298.958 19.9531C299.405 20.3153 300.034 20.4964 300.843 20.4964ZM322.843 6.63636L322.342 9.61932H312.945L313.436 6.63636H322.843ZM316.397 2.71591H320.254L317.697 18.0781C317.619 18.5966 317.633 18.9943 317.74 19.2713C317.853 19.5412 318.034 19.7259 318.283 19.8253C318.539 19.9247 318.826 19.9744 319.146 19.9744C319.38 19.9744 319.6 19.9567 319.806 19.9212C320.012 19.8786 320.176 19.8466 320.296 19.8253L320.467 22.8402C320.232 22.9112 319.916 22.9893 319.519 23.0746C319.128 23.1598 318.659 23.2095 318.112 23.2237C317.132 23.245 316.28 23.0959 315.556 22.7763C314.838 22.4496 314.313 21.9489 313.979 21.2741C313.652 20.5923 313.578 19.7401 313.755 18.7173L316.397 2.71591ZM328.007 23.3303C326.97 23.3303 326.068 23.1456 325.301 22.7763C324.534 22.3999 323.969 21.8459 323.607 21.1143C323.252 20.3828 323.163 19.4808 323.341 18.4084C323.497 17.4851 323.795 16.7216 324.235 16.1179C324.683 15.5142 325.23 15.0312 325.876 14.669C326.529 14.2997 327.24 14.0227 328.007 13.8381C328.781 13.6534 329.569 13.5185 330.372 13.4332C331.352 13.3338 332.144 13.2415 332.748 13.1562C333.358 13.071 333.816 12.9432 334.122 12.7727C334.427 12.5952 334.612 12.3253 334.676 11.9631V11.8991C334.804 11.0966 334.676 10.4751 334.292 10.0348C333.909 9.59446 333.27 9.37429 332.375 9.37429C331.437 9.37429 330.649 9.58026 330.01 9.99219C329.37 10.4041 328.905 10.8906 328.614 11.4517L325.12 10.9403C325.56 9.94602 326.164 9.11506 326.931 8.44744C327.698 7.77273 328.582 7.26847 329.583 6.93466C330.592 6.59375 331.668 6.4233 332.811 6.4233C333.593 6.4233 334.356 6.51563 335.102 6.70028C335.855 6.88494 336.519 7.19034 337.094 7.61648C337.676 8.03551 338.103 8.60724 338.373 9.33168C338.65 10.0561 338.696 10.9616 338.511 12.0483L336.689 23H332.982L333.365 20.7521H333.238C332.932 21.2067 332.534 21.6328 332.044 22.0305C331.554 22.4212 330.972 22.7372 330.297 22.9787C329.623 23.2131 328.859 23.3303 328.007 23.3303ZM329.466 20.4964C330.24 20.4964 330.936 20.3437 331.554 20.0384C332.172 19.7259 332.68 19.3139 333.078 18.8026C333.475 18.2912 333.724 17.7337 333.824 17.13L334.143 15.2017C334.001 15.3011 333.781 15.3935 333.483 15.4787C333.184 15.5639 332.85 15.6385 332.481 15.7024C332.119 15.7663 331.76 15.8232 331.405 15.8729C331.05 15.9226 330.745 15.9652 330.489 16.0007C329.9 16.0788 329.36 16.2067 328.87 16.3842C328.387 16.5618 327.985 16.8104 327.666 17.13C327.353 17.4425 327.158 17.8473 327.08 18.3445C326.966 19.0476 327.133 19.5838 327.581 19.9531C328.028 20.3153 328.657 20.4964 329.466 20.4964ZM351.593 6.63636L351.093 9.61932H341.419L341.92 6.63636H351.593ZM341.6 23L344.594 5.09162C344.765 3.99077 345.137 3.07457 345.713 2.34304C346.295 1.61151 347.002 1.06463 347.833 0.702414C348.671 0.340198 349.562 0.159089 350.507 0.159089C351.181 0.159089 351.767 0.212357 352.265 0.318892C352.762 0.425426 353.124 0.521306 353.351 0.606534L352.105 3.58949C351.941 3.53977 351.743 3.49006 351.508 3.44034C351.281 3.38352 351.015 3.35511 350.709 3.35511C349.992 3.35511 349.456 3.52912 349.1 3.87713C348.745 4.21804 348.511 4.7081 348.397 5.3473L345.468 23H341.6ZM358.47 23.3196C356.858 23.3196 355.516 22.9645 354.443 22.2543C353.378 21.544 352.629 20.5462 352.195 19.2607C351.762 17.9751 351.684 16.4837 351.961 14.7862C352.238 13.1101 352.792 11.6435 353.623 10.3864C354.461 9.12926 355.516 8.15625 356.787 7.46733C358.065 6.77131 359.496 6.4233 361.08 6.4233C362.692 6.4233 364.031 6.78196 365.097 7.49929C366.162 8.20952 366.911 9.20739 367.344 10.4929C367.785 11.7784 367.866 13.277 367.589 14.9886C367.32 16.6577 366.762 18.1172 365.917 19.3672C365.079 20.6172 364.024 21.5902 362.753 22.2862C361.482 22.9751 360.054 23.3196 358.47 23.3196ZM358.79 20.2301C359.685 20.2301 360.469 19.9886 361.144 19.5057C361.826 19.0156 362.384 18.3587 362.817 17.5348C363.257 16.7038 363.563 15.7805 363.733 14.7649C363.889 13.7848 363.893 12.897 363.744 12.1016C363.594 11.299 363.275 10.6634 362.785 10.1946C362.302 9.71875 361.631 9.48082 360.771 9.48082C359.876 9.48082 359.085 9.7294 358.396 10.2266C357.714 10.7166 357.156 11.3771 356.723 12.2081C356.29 13.032 355.991 13.9517 355.828 14.9673C355.665 15.9474 355.658 16.8352 355.807 17.6307C355.956 18.4261 356.276 19.0582 356.766 19.527C357.256 19.9957 357.93 20.2301 358.79 20.2301ZM369.542 23L372.269 6.63636H376.008L375.55 9.36364H375.721C376.168 8.41903 376.8 7.69105 377.617 7.17969C378.441 6.66122 379.322 6.40199 380.259 6.40199C380.479 6.40199 380.717 6.41264 380.973 6.43395C381.229 6.44815 381.449 6.47301 381.633 6.50852L381.037 10.0561C380.873 9.99929 380.618 9.94957 380.27 9.90696C379.929 9.85724 379.591 9.83239 379.258 9.83239C378.555 9.83239 377.901 9.98508 377.297 10.2905C376.701 10.5888 376.197 11.0043 375.785 11.5369C375.373 12.0696 375.106 12.6839 374.986 13.38L373.398 23H369.542ZM381.476 23L384.203 6.63636H387.9L387.431 9.4169H387.634C388.131 8.4794 388.816 7.74787 389.69 7.2223C390.564 6.68963 391.547 6.4233 392.641 6.4233C393.742 6.4233 394.63 6.69318 395.304 7.23295C395.986 7.76562 396.405 8.49361 396.561 9.4169H396.732C397.243 8.50071 397.975 7.77273 398.926 7.23295C399.885 6.69318 400.961 6.4233 402.154 6.4233C403.646 6.4233 404.789 6.89915 405.585 7.85085C406.38 8.80256 406.625 10.1911 406.32 12.0163L404.488 23H400.631L402.378 12.6129C402.534 11.5973 402.378 10.8551 401.909 10.3864C401.448 9.91051 400.826 9.67258 400.045 9.67258C399.115 9.67258 398.341 9.96023 397.723 10.5355C397.112 11.1108 396.735 11.8636 396.593 12.794L394.878 23H391.096L392.865 12.4531C392.993 11.608 392.843 10.9332 392.417 10.429C391.998 9.92472 391.38 9.67258 390.564 9.67258C390.01 9.67258 389.48 9.81463 388.976 10.0987C388.472 10.3828 388.042 10.7805 387.687 11.2919C387.339 11.7962 387.112 12.3821 387.005 13.0497L385.343 23H381.476ZM413.056 23.3303C412.019 23.3303 411.117 23.1456 410.35 22.7763C409.583 22.3999 409.018 21.8459 408.656 21.1143C408.301 20.3828 408.212 19.4808 408.389 18.4084C408.546 17.4851 408.844 16.7216 409.284 16.1179C409.732 15.5142 410.279 15.0312 410.925 14.669C411.578 14.2997 412.289 14.0227 413.056 13.8381C413.83 13.6534 414.618 13.5185 415.421 13.4332C416.401 13.3338 417.193 13.2415 417.796 13.1562C418.407 13.071 418.865 12.9432 419.171 12.7727C419.476 12.5952 419.661 12.3253 419.725 11.9631V11.8991C419.852 11.0966 419.725 10.4751 419.341 10.0348C418.958 9.59446 418.318 9.37429 417.423 9.37429C416.486 9.37429 415.698 9.58026 415.058 9.99219C414.419 10.4041 413.954 10.8906 413.663 11.4517L410.169 10.9403C410.609 9.94602 411.213 9.11506 411.98 8.44744C412.747 7.77273 413.631 7.26847 414.632 6.93466C415.641 6.59375 416.717 6.4233 417.86 6.4233C418.642 6.4233 419.405 6.51563 420.151 6.70028C420.904 6.88494 421.568 7.19034 422.143 7.61648C422.725 8.03551 423.151 8.60724 423.421 9.33168C423.698 10.0561 423.744 10.9616 423.56 12.0483L421.738 23H418.031L418.414 20.7521H418.286C417.981 21.2067 417.583 21.6328 417.093 22.0305C416.603 22.4212 416.021 22.7372 415.346 22.9787C414.671 23.2131 413.908 23.3303 413.056 23.3303ZM414.515 20.4964C415.289 20.4964 415.985 20.3437 416.603 20.0384C417.221 19.7259 417.729 19.3139 418.127 18.8026C418.524 18.2912 418.773 17.7337 418.872 17.13L419.192 15.2017C419.05 15.3011 418.83 15.3935 418.531 15.4787C418.233 15.5639 417.899 15.6385 417.53 15.7024C417.168 15.7663 416.809 15.8232 416.454 15.8729C416.099 15.9226 415.794 15.9652 415.538 16.0007C414.948 16.0788 414.409 16.2067 413.919 16.3842C413.436 16.5618 413.034 16.8104 412.715 17.13C412.402 17.4425 412.207 17.8473 412.129 18.3445C412.015 19.0476 412.182 19.5838 412.629 19.9531C413.077 20.3153 413.705 20.4964 414.515 20.4964ZM440.802 1.18182L437.18 23H433.228L436.85 1.18182H440.802ZM446.744 13.4119L445.168 23H441.3L444.028 6.63636H447.724L447.256 9.4169H447.458C447.969 8.50071 448.687 7.77273 449.61 7.23295C450.533 6.69318 451.609 6.4233 452.838 6.4233C453.953 6.4233 454.891 6.66477 455.651 7.14773C456.411 7.62358 456.95 8.32315 457.27 9.24645C457.589 10.1626 457.639 11.2741 457.419 12.581L455.672 23H451.815L453.445 13.1776C453.63 12.0909 453.491 11.2386 453.03 10.6207C452.575 9.99574 451.844 9.68324 450.835 9.68324C450.161 9.68324 449.539 9.83239 448.971 10.1307C448.403 10.4219 447.923 10.8445 447.533 11.3984C447.149 11.9524 446.886 12.6236 446.744 13.4119ZM465.622 23.2876C464.337 23.2876 463.239 22.9574 462.33 22.2969C461.421 21.6364 460.775 20.6776 460.391 19.4205C460.015 18.1634 459.972 16.6364 460.263 14.8395C460.569 13.0213 461.126 11.4872 461.936 10.2372C462.746 8.98011 463.712 8.03196 464.834 7.39276C465.963 6.74645 467.156 6.4233 468.413 6.4233C469.379 6.4233 470.143 6.58665 470.704 6.91335C471.272 7.23295 471.698 7.62003 471.982 8.07457C472.266 8.52202 472.476 8.9446 472.611 9.34233H472.771L474.124 1.18182H477.991L474.369 23H470.576L471.013 20.4219H470.778C470.509 20.8196 470.15 21.2422 469.702 21.6896C469.255 22.13 468.697 22.5064 468.03 22.8189C467.362 23.1314 466.56 23.2876 465.622 23.2876ZM467.156 20.1236C467.98 20.1236 468.719 19.9034 469.372 19.4631C470.033 19.0156 470.583 18.3942 471.023 17.5987C471.464 16.8033 471.773 15.8764 471.95 14.8182C472.128 13.7599 472.128 12.8402 471.95 12.0589C471.773 11.2777 471.428 10.6705 470.917 10.2372C470.406 9.80398 469.734 9.58736 468.903 9.58736C468.051 9.58736 467.302 9.81108 466.656 10.2585C466.016 10.706 465.491 11.3239 465.079 12.1122C464.667 12.9006 464.376 13.8026 464.205 14.8182C464.035 15.8409 464.024 16.7536 464.173 17.5561C464.33 18.3516 464.653 18.9801 465.143 19.4418C465.64 19.8963 466.311 20.1236 467.156 20.1236ZM490.066 16.1179L491.654 6.63636H495.51L492.783 23H489.044L489.534 20.0916H489.363C488.852 21.0078 488.12 21.7571 487.169 22.3395C486.224 22.9219 485.137 23.2131 483.909 23.2131C482.836 23.2131 481.931 22.9751 481.192 22.4993C480.453 22.0163 479.928 21.3168 479.615 20.4006C479.31 19.4773 479.264 18.3622 479.477 17.0554L481.224 6.63636H485.081L483.44 16.4588C483.277 17.4957 483.426 18.3196 483.887 18.9304C484.356 19.5412 485.052 19.8466 485.975 19.8466C486.544 19.8466 487.115 19.7081 487.691 19.4311C488.273 19.1541 488.781 18.7422 489.214 18.1953C489.647 17.6413 489.931 16.9489 490.066 16.1179ZM511.674 10.9616L508.127 11.3452C508.091 10.983 507.981 10.6456 507.796 10.3331C507.612 10.0206 507.335 9.77202 506.965 9.58736C506.603 9.3956 506.134 9.29972 505.559 9.29972C504.721 9.29972 503.986 9.48793 503.354 9.86435C502.722 10.2408 502.363 10.7237 502.278 11.3132C502.2 11.7536 502.306 12.1122 502.597 12.3892C502.889 12.6662 503.428 12.9006 504.217 13.0923L506.923 13.6889C508.414 14.0227 509.487 14.5625 510.14 15.3082C510.801 16.054 511.031 17.0305 510.833 18.2379C510.662 19.2464 510.222 20.1342 509.512 20.9013C508.801 21.6612 507.892 22.2543 506.784 22.6804C505.683 23.1065 504.462 23.3196 503.119 23.3196C501.081 23.3196 499.512 22.897 498.411 22.0518C497.317 21.1996 496.774 20.0277 496.781 18.5362L500.573 18.174C500.616 18.9126 500.875 19.4702 501.351 19.8466C501.827 20.2159 502.487 20.4041 503.333 20.4112C504.284 20.4183 505.087 20.2195 505.74 19.8146C506.401 19.4027 506.774 18.902 506.859 18.3125C506.93 17.8722 506.82 17.5135 506.529 17.2365C506.244 16.9595 505.737 16.7393 505.005 16.576L502.32 15.9901C500.801 15.6562 499.718 15.0916 499.071 14.2962C498.432 13.4936 498.215 12.4815 498.421 11.2599C498.592 10.2656 499.007 9.4098 499.668 8.69247C500.335 7.96804 501.191 7.41051 502.235 7.01989C503.279 6.62216 504.448 6.4233 505.74 6.4233C507.686 6.4233 509.153 6.83168 510.14 7.64844C511.127 8.4652 511.639 9.5696 511.674 10.9616ZM524.112 6.63636L523.611 9.61932H514.215L514.705 6.63636H524.112ZM517.667 2.71591H521.523L518.966 18.0781C518.888 18.5966 518.903 18.9943 519.009 19.2713C519.123 19.5412 519.304 19.7259 519.552 19.8253C519.808 19.9247 520.096 19.9744 520.415 19.9744C520.65 19.9744 520.87 19.9567 521.076 19.9212C521.282 19.8786 521.445 19.8466 521.566 19.8253L521.736 22.8402C521.502 22.9112 521.186 22.9893 520.788 23.0746C520.398 23.1598 519.929 23.2095 519.382 23.2237C518.402 23.245 517.55 23.0959 516.825 22.7763C516.108 22.4496 515.582 21.9489 515.248 21.2741C514.922 20.5923 514.847 19.7401 515.025 18.7173L517.667 2.71591ZM524.61 23L527.337 6.63636H531.077L530.619 9.36364H530.789C531.237 8.41903 531.869 7.69105 532.685 7.17969C533.509 6.66122 534.39 6.40199 535.327 6.40199C535.548 6.40199 535.786 6.41264 536.041 6.43395C536.297 6.44815 536.517 6.47301 536.702 6.50852L536.105 10.0561C535.942 9.99929 535.686 9.94957 535.338 9.90696C534.997 9.85724 534.66 9.83239 534.326 9.83239C533.623 9.83239 532.969 9.98508 532.366 10.2905C531.769 10.5888 531.265 11.0043 530.853 11.5369C530.441 12.0696 530.175 12.6839 530.054 13.38L528.467 23H524.61ZM536.534 23L539.261 6.63636H543.118L540.39 23H536.534ZM541.754 4.29261C541.136 4.29261 540.625 4.08665 540.22 3.67471C539.815 3.26278 539.638 2.76918 539.687 2.19389C539.737 1.61861 539.996 1.125 540.465 0.713068C540.941 0.301136 541.484 0.0951706 542.095 0.0951706C542.713 0.0951706 543.221 0.301136 543.618 0.713068C544.023 1.125 544.201 1.61861 544.151 2.19389C544.108 2.76918 543.849 3.26278 543.373 3.67471C542.905 4.08665 542.365 4.29261 541.754 4.29261ZM549.022 23.3303C547.985 23.3303 547.083 23.1456 546.316 22.7763C545.549 22.3999 544.985 21.8459 544.623 21.1143C544.267 20.3828 544.179 19.4808 544.356 18.4084C544.512 17.4851 544.811 16.7216 545.251 16.1179C545.699 15.5142 546.245 15.0312 546.892 14.669C547.545 14.2997 548.255 14.0227 549.022 13.8381C549.797 13.6534 550.585 13.5185 551.387 13.4332C552.368 13.3338 553.159 13.2415 553.763 13.1562C554.374 13.071 554.832 12.9432 555.137 12.7727C555.443 12.5952 555.627 12.3253 555.691 11.9631V11.8991C555.819 11.0966 555.691 10.4751 555.308 10.0348C554.924 9.59446 554.285 9.37429 553.39 9.37429C552.453 9.37429 551.664 9.58026 551.025 9.99219C550.386 10.4041 549.921 10.8906 549.63 11.4517L546.135 10.9403C546.576 9.94602 547.179 9.11506 547.946 8.44744C548.713 7.77273 549.598 7.26847 550.599 6.93466C551.608 6.59375 552.684 6.4233 553.827 6.4233C554.608 6.4233 555.372 6.51563 556.118 6.70028C556.87 6.88494 557.534 7.19034 558.11 7.61648C558.692 8.03551 559.118 8.60724 559.388 9.33168C559.665 10.0561 559.711 10.9616 559.527 12.0483L557.705 23H553.998L554.381 20.7521H554.253C553.948 21.2067 553.55 21.6328 553.06 22.0305C552.57 22.4212 551.988 22.7372 551.313 22.9787C550.638 23.2131 549.875 23.3303 549.022 23.3303ZM550.482 20.4964C551.256 20.4964 551.952 20.3437 552.57 20.0384C553.188 19.7259 553.696 19.3139 554.093 18.8026C554.491 18.2912 554.74 17.7337 554.839 17.13L555.159 15.2017C555.017 15.3011 554.797 15.3935 554.498 15.4787C554.2 15.5639 553.866 15.6385 553.497 15.7024C553.135 15.7663 552.776 15.8232 552.421 15.8729C552.066 15.9226 551.76 15.9652 551.505 16.0007C550.915 16.0788 550.375 16.2067 549.885 16.3842C549.402 16.5618 549.001 16.8104 548.681 17.13C548.369 17.4425 548.174 17.8473 548.096 18.3445C547.982 19.0476 548.149 19.5838 548.596 19.9531C549.044 20.3153 549.672 20.4964 550.482 20.4964ZM569.061 1.18182L565.439 23H561.583L565.205 1.18182H569.061Z" fill="#A5A5A5"/>
</svg>
